 <svg version="1.0" xmlns="http://www.w3.org/2000/svg"  width="300.000000pt" height="194.000000pt" viewBox="0 0 300.000000 194.000000"  preserveAspectRatio="xMidYMid meet">  <g transform="translate(0.000000,194.000000) scale(0.100000,-0.100000)" fill="#000000" stroke="none"> <path d="M1995 1594 c-126 -20 -303 -107 -420 -209 -24 -20 -19 -19 25 8 199 123 359 166 490 133 99 -26 159 -82 161 -153 1 -50 18 6 18 63 1 62 -27 111 -80 137 -37 18 -140 29 -194 21z m156 -34 c35 -10 89 -53 89 -72 0 -5 -17 3 -37 17 -21 14 -62 33 -90 41 -29 8 -53 17 -53 20 0 8 54 4 91 -6z"/> <path d="M1958 1469 c305 -60 12 -657 -433 -883 -143 -72 -263 -83 -332 -30 -23 18 -49 27 -74 28 -38 1 -39 0 -39 -34 0 -58 20 -112 54 -146 109 -109 363 -39 628 173 l67 53 199 0 198 0 -74 146 -73 145 51 102 c63 127 87 231 71 308 -23 106 -84 149 -211 148 -69 -1 -71 -2 -32 -10z m162 -48 c42 -30 53 -62 52 -154 -1 -86 -18 -141 -83 -269 l-39 -78 62 -122 c35 -68 65 -126 66 -130 2 -5 -74 -8 -168 -8 -185 0 -187 -1 -260 -59 -169 -138 -351 -221 -483 -221 -84 0 -142 49 -153 128 -6 48 -5 52 14 52 12 0 24 -5 27 -10 4 -6 29 -22 57 -36 45 -23 58 -25 112 -19 206 24 449 189 628 430 142 189 191 366 135 477 -26 51 -17 56 33 19z"/> <path d="M1720 1304 c-40 -18 -58 -36 -328 -342 -113 -128 -206 -231 -208 -229 -2 1 13 94 33 205 l37 202 125 1 126 1 79 84 79 84 -384 0 -384 0 -83 -83 c-45 -45 -82 -85 -82 -87 0 -3 72 -4 161 -2 151 3 160 2 155 -15 -3 -10 -23 -120 -45 -246 -22 -125 -43 -232 -46 -237 -4 -6 66 -10 192 -9 l198 0 195 224 c107 123 199 224 203 225 4 0 27 -40 50 -90 23 -49 45 -89 49 -90 9 0 105 134 125 176 15 31 15 34 -29 115 -64 122 -125 154 -218 113z m138 -32 c24 -24 72 -110 72 -129 0 -7 5 -13 10 -13 29 0 -8 -82 -75 -165 -18 -23 -21 -21 -60 61 -14 28 -33 58 -43 67 -17 16 -20 15 -50 -11 -17 -15 -66 -67 -108 -117 -43 -49 -82 -95 -88 -101 -6 -6 -51 -56 -100 -112 l-89 -100 -163 -1 c-117 -1 -163 2 -166 10 -4 12 3 59 51 343 29 168 34 161 -134 160 -69 0 -125 1 -125 3 0 2 27 30 60 63 l60 60 345 -1 c190 0 345 -3 345 -7 0 -4 -26 -33 -57 -63 l-58 -56 -115 -2 c-81 -2 -120 -7 -130 -17 -9 -7 -22 -48 -29 -91 -7 -43 -21 -122 -32 -175 -23 -118 -24 -142 -3 -159 14 -12 25 -5 83 58 36 39 89 98 116 129 238 275 321 363 359 380 42 18 98 12 124 -14z"/> <path d="M1517 715 l-79 -85 42 0 c45 0 122 44 224 129 l48 41 -78 0 -79 -1 -78 -84z m141 41 c-59 -49 -69 -56 -74 -56 -3 0 -17 -9 -31 -20 -53 -42 -53 -18 1 38 48 50 61 58 92 58 l36 0 -24 -20z"/> </g> </svg> 